<?xml version="1.0" encoding="UTF-8"?>
<svg width="180px" height="100px" viewBox="0 0 180 100" version="1.1" xmlns="http://www.w3.org/2000/svg" xmlns:xlink="http://www.w3.org/1999/xlink">
    <title>编组 2</title>
    <g id="组件库" stroke="none" stroke-width="1" fill="none" fill-rule="evenodd">
        <g id="图像容错" transform="translate(-294.000000, -17.000000)">
            <g id="编组-2" transform="translate(294.000000, 17.000000)">
                <rect id="矩形" fill="#D8D8D8" x="0" y="0" width="180" height="100"></rect>
                <g id="图片" transform="translate(59.000000, 22.000000)" fill="#B1B1B1" fill-rule="nonzero">
                    <rect id="矩形" opacity="0" x="0" y="0" width="55" height="55"></rect>
                    <path d="M22.899361,27.524401 C21.8274761,27.524401 20.8286741,27.3210588 19.9029553,26.9143744 C18.9772364,26.50769 18.1733226,25.9545992 17.491214,25.255102 C16.8091054,24.5556048 16.2650426,23.742236 15.8590255,22.8149955 C15.4530085,21.887755 15.2499999,20.9035788 15.2499999,19.8624667 C15.2499999,18.8213546 15.4530085,17.8371783 15.8590255,16.9099378 C16.2650426,15.9826973 16.8091054,15.1774622 17.491214,14.4942324 C18.1733226,13.8110026 18.9772364,13.2660455 19.9029553,12.859361 C20.8286741,12.4526766 21.8274761,12.2493344 22.899361,12.2493344 C23.9387646,12.2493344 24.9213259,12.4526766 25.8470448,12.859361 C26.7727636,13.2660455 27.5766774,13.8110026 28.258786,14.4942324 C28.9408946,15.1774622 29.4849574,15.9826973 29.8909745,16.9099378 C30.2969916,17.8371783 30.5000001,18.8213546 30.5000001,19.8624667 C30.5000001,20.9035788 30.2969916,21.887755 29.8909745,22.8149955 C29.4849574,23.742236 28.9408946,24.5556048 28.258786,25.255102 C27.5766774,25.9545992 26.7727636,26.50769 25.8470448,26.9143744 C24.9213259,27.3210588 23.9387646,27.524401 22.899361,27.524401 Z M61,55 L0,55 L0,0 L61,0 L61,6.10026619 L61,55 Z M54.9097444,6.10026619 L6.13897763,6.10026619 L6.13897763,43.8243123 C6.72364219,42.9784087 7.37326945,42.1325052 8.08785943,41.2866016 C8.80244941,40.440698 9.54952076,39.6761313 10.3290735,38.9929015 C11.1086262,38.3096717 11.9125399,37.7484472 12.7408147,37.309228 C13.5690895,36.8700088 14.4054846,36.6503993 15.25,36.6503993 C16.2569223,36.6503993 17.1257987,36.7236025 17.8566294,36.8700089 C18.58746,37.0164153 19.2370873,37.2034901 19.8055112,37.4312334 C20.373935,37.6589767 20.9017572,37.911121 21.3889776,38.1876664 C21.876198,38.4642118 22.4040202,38.7163561 22.9724441,38.9440994 C23.540868,39.1718427 24.1823749,39.3589175 24.8969648,39.5053239 C25.6115548,39.6517303 26.4723109,39.7249335 27.4792332,39.7249335 C28.4861555,39.7249335 29.355032,39.423987 30.0858626,38.8220941 C30.8166932,38.2202011 31.4906815,37.4637681 32.1078274,36.552795 C32.7249734,35.6418219 33.3421193,34.6657794 33.9592651,33.6246673 C34.576411,32.5835552 35.2747603,31.6075126 36.0543131,30.6965395 C36.8338659,29.7855664 37.7595847,29.0291334 38.8314696,28.4272405 C39.9033545,27.8253476 41.202609,27.5244011 42.7292332,27.5244011 C44.0284877,27.5244011 45.2790202,27.9229518 46.4808306,28.7200533 C47.6826411,29.5171548 48.7951278,30.5501332 49.8182907,31.8189885 C50.8414536,33.0878438 51.7834132,34.5031056 52.6441693,36.0647738 C53.5049254,37.6264419 54.2601171,39.1555753 54.9097444,40.652174 L54.9097444,6.10026619 L54.9097444,6.10026619 Z" id="形状"></path>
                </g>
            </g>
        </g>
    </g>
</svg>