<svg id="etjcBW6OmK31" xmlns="http://www.w3.org/2000/svg" xmlns:xlink="http://www.w3.org/1999/xlink" viewBox="0 0 28 36" shape-rendering="geometricPrecision" text-rendering="geometricPrecision"><style><![CDATA[#etjcBW6OmK33_ts {animation: etjcBW6OmK33_ts__ts 2200ms linear infinite normal forwards}@keyframes etjcBW6OmK33_ts__ts { 0% {transform: translate(14px,17px) scale(1,1)} 45.454545% {transform: translate(14px,17px) scale(1.25,1.25);animation-timing-function: cubic-bezier(0.42,0,0.58,1)} 90.909091% {transform: translate(14px,17px) scale(1,1)} 100% {transform: translate(14px,17px) scale(1,1)}}]]></style><defs><path id="etjcBW6OmK32" d="M13.991714,25.460496C13.75798,25.800047,13.390427,26,13,26s-.75798-.199953-.991714-.539504C6.891238,18.022644,4.333333,12.6711,4.333333,9.409898c0-3.361833,1.651858-6.468294,4.333334-8.149211s5.98519-1.680916,8.666666,0s4.333334,4.787378,4.333334,8.149211c0,3.259858-2.557905,8.611401-7.674953,16.050598v0ZM13,13.442712c1.326987,0,2.553173-.76865,3.216666-2.016407s.663493-2.785057,0-4.032813-1.889679-2.016407-3.216666-2.016407c-2.051343,0-3.714286,1.805552-3.714286,4.032813s1.662943,4.032814,3.714286,4.032814Z"/><filter id="etjcBW6OmK33-filter" x="-400%" width="600%" y="-400%" height="600%"><feGaussianBlur id="etjcBW6OmK33-filter-drop-shadow-0-blur" in="SourceAlpha" stdDeviation="1,3"/><feOffset id="etjcBW6OmK33-filter-drop-shadow-0-offset" dx="0" dy="2" result="tmp"/><feFlood id="etjcBW6OmK33-filter-drop-shadow-0-flood" flood-color="rgba(235,47,150,0.7)"/><feComposite id="etjcBW6OmK33-filter-drop-shadow-0-composite" operator="in" in2="tmp"/><feMerge id="etjcBW6OmK33-filter-drop-shadow-0-merge"><feMergeNode id="etjcBW6OmK33-filter-drop-shadow-0-merge-node-1"/><feMergeNode id="etjcBW6OmK33-filter-drop-shadow-0-merge-node-2" in="SourceGraphic"/></feMerge></filter></defs><g id="etjcBW6OmK33_ts" transform="translate(14,17) scale(1,1)"><g transform="translate(-14,-17)" filter="url(#etjcBW6OmK33-filter)"><g transform="translate(-122-69)"><g transform="translate(123 73)"><rect width="26" height="26" rx="0" ry="0" opacity="0" fill="#eb2f96"/><g><use width="17.333332" height="26" xlink:href="#etjcBW6OmK32"/><use width="17.333332" height="26" xlink:href="#etjcBW6OmK32" fill="#eb2f96"/></g></g></g></g></g></svg>