<?xml version="1.0" encoding="UTF-8"?>
<svg width="28px" height="36px" viewBox="0 0 28 36" version="1.1" xmlns="http://www.w3.org/2000/svg" xmlns:xlink="http://www.w3.org/1999/xlink">
    <title>图标/定位标签</title>
    <defs>
        <path d="M13.9917143,25.4604961 C13.7579798,25.8000468 13.3904266,26 13,26 C12.6095734,26 12.2420202,25.8000468 12.0082857,25.4604961 C6.8912381,18.0226437 4.33333333,12.6711002 4.33333333,9.40989831 C4.33333333,6.04806546 5.98519061,2.94160377 8.66666663,1.26068733 C11.3481426,-0.42022911 14.6518574,-0.42022911 17.3333333,1.26068733 C20.0148094,2.94160377 21.6666667,6.04806546 21.6666667,9.40989831 C21.6666667,12.6697559 19.1087619,18.0212994 13.9917143,25.4604961 L13.9917143,25.4604961 Z M13,13.4427118 C14.3269865,13.4427118 15.5531726,12.6740619 16.2166658,11.4263051 C16.8801591,10.1785482 16.8801591,8.64124839 16.2166658,7.39349154 C15.5531726,6.1457347 14.3269865,5.37708481 13,5.37708481 C10.9486566,5.37708481 9.28571429,7.18263692 9.28571429,9.40989831 C9.28571429,11.6371597 10.9486566,13.4427118 13,13.4427118 Z" id="path-1"></path>
        <filter x="-41.8%" y="-24.0%" width="183.7%" height="155.8%" filterUnits="objectBoundingBox" id="filter-2">
            <feMorphology radius="0.25" operator="dilate" in="SourceAlpha" result="shadowSpreadOuter1"></feMorphology>
            <feOffset dx="0" dy="1" in="shadowSpreadOuter1" result="shadowOffsetOuter1"></feOffset>
            <feGaussianBlur stdDeviation="2" in="shadowOffsetOuter1" result="shadowBlurOuter1"></feGaussianBlur>
            <feColorMatrix values="0 0 0 0 0   0 0 0 0 0   0 0 0 0 0  0 0 0 0.5 0" type="matrix" in="shadowBlurOuter1"></feColorMatrix>
        </filter>
    </defs>
    <g id="组件库" stroke="none" stroke-width="1" fill="none" fill-rule="evenodd">
        <g id="画板" transform="translate(-122.000000, -69.000000)" fill-rule="nonzero">
            <g id="定位标签" transform="translate(123.000000, 73.000000)">
                <rect id="矩形" fill="#EB2F96" opacity="0" x="0" y="0" width="26" height="26"></rect>
                <g id="形状">
                    <use fill="black" fill-opacity="1" filter="url(#filter-2)" xlink:href="#path-1"></use>
                    <use fill="#EB2F96" xlink:href="#path-1"></use>
                </g>
            </g>
        </g>
    </g>
</svg>